<svg width="25" height="25" viewBox="0 0 25 25" fill="none" xmlns="http://www.w3.org/2000/svg">
<path d="M0.5 12.3335C0.5 5.706 5.8725 0.333496 12.5 0.333496C19.1275 0.333496 24.5 5.706 24.5 12.3335C24.5 18.961 19.1275 24.3335 12.5 24.3335C5.8725 24.3335 0.5 18.961 0.5 12.3335ZM12.7865 13.2055C14.2735 13.5715 14.719 14.0565 14.719 14.8755C14.719 15.7265 14.1465 16.3705 12.7865 16.474V13.2055ZM11.888 11.369C10.616 11.0505 10.1385 10.518 10.1385 9.794C10.1385 9.07 10.743 8.4105 11.8885 8.2675L11.888 11.369ZM12.7865 11.5835V8.2675C13.8045 8.3945 14.52 8.975 14.6235 9.9775H16.2775C16.214 8.1725 14.7745 6.9795 12.7865 6.82V5.4765H11.888V6.82C9.884 6.9715 8.453 8.148 8.453 9.9295C8.453 11.5435 9.5425 12.4505 11.562 12.9195L11.888 12.999V16.466C10.608 16.331 10.0035 15.647 9.8605 14.7165H8.2145C8.2695 16.625 9.8685 17.762 11.888 17.9135V19.249H12.7865V17.9135C14.8145 17.77 16.405 16.665 16.405 14.7165C16.405 13.023 15.26 12.164 13.1685 11.679L12.7865 11.5835Z" fill="#376F7E"/>
</svg>
