<svg width="20" height="26" viewBox="0 0 20 26" fill="none" xmlns="http://www.w3.org/2000/svg">
<path fill-rule="evenodd" clip-rule="evenodd" d="M9.0775 25.1675C9.0775 25.1675 0 17.5225 0 10C0 7.34784 1.05357 4.8043 2.92893 2.92893C4.8043 1.05357 7.34784 0 10 0C12.6522 0 15.1957 1.05357 17.0711 2.92893C18.9464 4.8043 20 7.34784 20 10C20 17.5225 10.9225 25.1675 10.9225 25.1675C10.4175 25.6325 9.58625 25.6275 9.0775 25.1675ZM10 14.375C10.5745 14.375 11.1434 14.2618 11.6742 14.042C12.205 13.8221 12.6873 13.4998 13.0936 13.0936C13.4998 12.6873 13.8221 12.205 14.042 11.6742C14.2618 11.1434 14.375 10.5745 14.375 10C14.375 9.42547 14.2618 8.85656 14.042 8.32576C13.8221 7.79496 13.4998 7.31266 13.0936 6.90641C12.6873 6.50015 12.205 6.17789 11.6742 5.95803C11.1434 5.73816 10.5745 5.625 10 5.625C8.83968 5.625 7.72688 6.08594 6.90641 6.90641C6.08594 7.72688 5.625 8.83968 5.625 10C5.625 11.1603 6.08594 12.2731 6.90641 13.0936C7.72688 13.9141 8.83968 14.375 10 14.375Z" fill="#FF9D66"/>
</svg>
