<svg width="24" height="25" viewBox="0 0 24 25" fill="none" xmlns="http://www.w3.org/2000/svg">
<path d="M3 14L2.25 12.5H7.5L6.9 11H2L1.25 9.5H9.05L8.45 8H1.11L0.25 6.5H4C4 5.96957 4.21071 5.46086 4.58579 5.08579C4.96086 4.71071 5.46957 4.5 6 4.5H18V8.5H21L24 12.5V17.5H22C22 18.2956 21.6839 19.0587 21.1213 19.6213C20.5587 20.1839 19.7956 20.5 19 20.5C18.2044 20.5 17.4413 20.1839 16.8787 19.6213C16.3161 19.0587 16 18.2956 16 17.5H12C12 18.2956 11.6839 19.0587 11.1213 19.6213C10.5587 20.1839 9.79565 20.5 9 20.5C8.20435 20.5 7.44129 20.1839 6.87868 19.6213C6.31607 19.0587 6 18.2956 6 17.5H4V14H3ZM19 19C19.3978 19 19.7794 18.842 20.0607 18.5607C20.342 18.2794 20.5 17.8978 20.5 17.5C20.5 17.1022 20.342 16.7206 20.0607 16.4393C19.7794 16.158 19.3978 16 19 16C18.6022 16 18.2206 16.158 17.9393 16.4393C17.658 16.7206 17.5 17.1022 17.5 17.5C17.5 17.8978 17.658 18.2794 17.9393 18.5607C18.2206 18.842 18.6022 19 19 19ZM20.5 10H18V12.5H22.46L20.5 10ZM9 19C9.39782 19 9.77936 18.842 10.0607 18.5607C10.342 18.2794 10.5 17.8978 10.5 17.5C10.5 17.1022 10.342 16.7206 10.0607 16.4393C9.77936 16.158 9.39782 16 9 16C8.60218 16 8.22064 16.158 7.93934 16.4393C7.65804 16.7206 7.5 17.1022 7.5 17.5C7.5 17.8978 7.65804 18.2794 7.93934 18.5607C8.22064 18.842 8.60218 19 9 19Z" fill="#3E6E7A"/>
</svg>
