<svg width="54" height="54" viewBox="0 0 54 54" fill="none" xmlns="http://www.w3.org/2000/svg">
<path d="M27.0023 20.25C25.212 20.25 23.4951 20.9612 22.2293 22.227C20.9634 23.4929 20.2523 25.2098 20.2523 27C20.2523 28.7902 20.9634 30.5071 22.2293 31.773C23.4951 33.0388 25.212 33.75 27.0023 33.75C28.7925 33.75 30.5093 33.0388 31.7752 31.773C33.0411 30.5071 33.7523 28.7902 33.7523 27C33.7523 25.2098 33.0411 23.4929 31.7752 22.227C30.5093 20.9612 28.7925 20.25 27.0023 20.25ZM27.0023 15.75C29.9859 15.75 32.8474 16.9353 34.9572 19.045C37.067 21.1548 38.2523 24.0163 38.2523 27C38.2523 29.9837 37.067 32.8452 34.9572 34.955C32.8474 37.0647 29.9859 38.25 27.0023 38.25C24.0186 38.25 21.1571 37.0647 19.0473 34.955C16.9375 32.8452 15.7522 29.9837 15.7522 27C15.7522 24.0163 16.9375 21.1548 19.0473 19.045C21.1571 16.9353 24.0186 15.75 27.0023 15.75ZM41.6273 15.1875C41.6273 15.9334 41.3309 16.6488 40.8035 17.1762C40.276 17.7037 39.5607 18 38.8148 18C38.0688 18 37.3535 17.7037 36.826 17.1762C36.2986 16.6488 36.0022 15.9334 36.0022 15.1875C36.0022 14.4416 36.2986 13.7262 36.826 13.1988C37.3535 12.6713 38.0688 12.375 38.8148 12.375C39.5607 12.375 40.276 12.6713 40.8035 13.1988C41.3309 13.7262 41.6273 14.4416 41.6273 15.1875ZM27.0023 9C21.4358 9 20.5268 9.01575 17.937 9.1305C16.173 9.21375 14.9895 9.45 13.8915 9.8775C12.9731 10.2158 12.1426 10.7564 11.4615 11.4592C10.7579 12.1401 10.2165 12.9707 9.8775 13.8892C9.45 14.9917 9.21375 16.173 9.13275 17.9348C9.01575 20.4188 9 21.2873 9 27C9 32.5688 9.01575 33.4755 9.1305 36.0652C9.21375 37.827 9.45 39.0127 9.87525 40.1085C10.2578 41.0872 10.7078 41.7915 11.4548 42.5385C12.213 43.2945 12.9172 43.7467 13.8848 44.1202C14.9963 44.55 16.1798 44.7885 17.9348 44.8695C20.4188 44.9865 21.2873 45 27 45C32.5688 45 33.4755 44.9842 36.0652 44.8695C37.8247 44.7862 39.0083 44.55 40.1085 44.1247C41.0269 43.7864 41.8574 43.2458 42.5385 42.543C43.2967 41.787 43.749 41.0827 44.1225 40.113C44.55 39.006 44.7885 37.8225 44.8695 36.063C44.9865 33.5812 45 32.7105 45 27C45 21.4335 44.9842 20.5245 44.8695 17.9348C44.7862 16.1753 44.5478 14.9872 44.1225 13.8892C43.7842 12.9709 43.2436 12.1404 42.5407 11.4592C41.8599 10.7556 41.0293 10.2142 40.1107 9.87525C39.0082 9.44775 37.8247 9.2115 36.0652 9.1305C33.5835 9.0135 32.715 9 27 9M27 4.5C33.1133 4.5 33.876 4.5225 36.2767 4.635C38.6707 4.7475 40.3042 5.12325 41.7375 5.68125C43.2225 6.25275 44.4735 7.02675 45.7245 8.2755C46.8691 9.3999 47.7544 10.7606 48.3188 12.2625C48.8745 13.6957 49.2525 15.3292 49.365 17.7255C49.4708 20.124 49.5 20.8867 49.5 27C49.5 33.1133 49.4775 33.876 49.365 36.2745C49.2525 38.673 48.8745 40.302 48.3188 41.7375C47.7544 43.2394 46.8691 44.6001 45.7245 45.7245C44.6001 46.8691 43.2394 47.7544 41.7375 48.3188C40.3042 48.8745 38.6707 49.2525 36.2767 49.365C33.876 49.4708 33.1133 49.5 27 49.5C20.8867 49.5 20.124 49.4775 17.7232 49.365C15.3292 49.2525 13.698 48.8745 12.2625 48.3188C10.7606 47.7544 9.3999 46.8691 8.2755 45.7245C7.13094 44.6001 6.24559 43.2394 5.68125 41.7375C5.12325 40.3042 4.7475 38.6707 4.635 36.2745C4.527 33.876 4.5 33.1133 4.5 27C4.5 20.8867 4.5225 20.124 4.635 17.7255C4.7475 15.327 5.12325 13.698 5.68125 12.2625C6.24559 10.7606 7.13094 9.3999 8.2755 8.2755C9.3999 7.13094 10.7606 6.24559 12.2625 5.68125C13.6957 5.12325 15.327 4.7475 17.7232 4.635C20.1262 4.52925 20.889 4.5 27.0023 4.5" fill="white"/>
</svg>
