<svg width="25" height="30" viewBox="0 0 25 30" fill="none" xmlns="http://www.w3.org/2000/svg">
<path d="M17.2265 2.92646L17.6538 5.88542H23.4375C23.7276 5.88542 24.0058 6.00065 24.2109 6.20577C24.416 6.41089 24.5312 6.68909 24.5312 6.97917C24.5312 7.26925 24.416 7.54745 24.2109 7.75256C24.0058 7.95768 23.7276 8.07292 23.4375 8.07292H22.316L21.0429 22.926C20.9656 23.8302 20.9029 24.574 20.8023 25.1748C20.7002 25.8004 20.5442 26.3604 20.2394 26.8796C19.7608 27.695 19.0493 28.3486 18.1963 28.7565C17.6538 29.0146 17.0821 29.121 16.4492 29.1706C15.841 29.2188 15.0958 29.2188 14.1888 29.2188H10.8113C9.90417 29.2188 9.15896 29.2188 8.55083 29.1706C7.91792 29.121 7.34625 29.0146 6.80375 28.7565C5.95075 28.3486 5.23922 27.695 4.76062 26.8796C4.45437 26.3604 4.30125 25.8004 4.19771 25.1748C4.09708 24.5725 4.03438 23.8302 3.95708 22.926L2.68396 8.07292H1.5625C1.27242 8.07292 0.99422 7.95768 0.789102 7.75256C0.583984 7.54745 0.46875 7.26925 0.46875 6.97917C0.46875 6.68909 0.583984 6.41089 0.789102 6.20577C0.99422 6.00065 1.27242 5.88542 1.5625 5.88542H7.34625L7.77354 2.92646L7.78958 2.8375C8.055 1.68542 9.04375 0.78125 10.2833 0.78125H14.7167C15.9563 0.78125 16.945 1.68542 17.2104 2.8375L17.2265 2.92646ZM9.55562 5.88542H15.4429L15.0696 3.29542C14.9996 3.05188 14.8217 2.96875 14.7152 2.96875H10.2848C10.1783 2.96875 10.0004 3.05188 9.93042 3.29542L9.55562 5.88542ZM11.4062 12.8125C11.4062 12.5224 11.291 12.2442 11.0859 12.0391C10.8808 11.834 10.6026 11.7188 10.3125 11.7188C10.0224 11.7188 9.74422 11.834 9.5391 12.0391C9.33398 12.2442 9.21875 12.5224 9.21875 12.8125V20.1042C9.21875 20.3942 9.33398 20.6724 9.5391 20.8776C9.74422 21.0827 10.0224 21.1979 10.3125 21.1979C10.6026 21.1979 10.8808 21.0827 11.0859 20.8776C11.291 20.6724 11.4062 20.3942 11.4062 20.1042V12.8125ZM15.7812 12.8125C15.7812 12.5224 15.666 12.2442 15.4609 12.0391C15.2558 11.834 14.9776 11.7188 14.6875 11.7188C14.3974 11.7188 14.1192 11.834 13.9141 12.0391C13.709 12.2442 13.5938 12.5224 13.5938 12.8125V20.1042C13.5938 20.3942 13.709 20.6724 13.9141 20.8776C14.1192 21.0827 14.3974 21.1979 14.6875 21.1979C14.9776 21.1979 15.2558 21.0827 15.4609 20.8776C15.666 20.6724 15.7812 20.3942 15.7812 20.1042V12.8125Z" fill="white"/>
</svg>
