<svg width="24" height="25" viewBox="0 0 24 25" fill="none" xmlns="http://www.w3.org/2000/svg">
<path d="M12 21.5L20.131 17.292C20.447 17.128 20.605 17.047 20.72 16.926C20.8219 16.8198 20.899 16.6925 20.946 16.553C21 16.394 21 16.217 21 15.861V8.03302M12 21.5L3.869 17.292C3.553 17.128 3.395 17.047 3.28 16.926C3.17814 16.8198 3.10097 16.6925 3.054 16.553C3 16.394 3 16.216 3 15.859V8.03302M12 21.5V12.437M21 8.03302L12 12.437M21 8.03302L12.73 3.75302C12.463 3.61502 12.33 3.54502 12.189 3.51802C12.0641 3.49399 11.9359 3.49399 11.811 3.51802C11.671 3.54502 11.537 3.61502 11.269 3.75302L3 8.03302M3 8.03302L12 12.437" stroke="#3E6E7A" stroke-width="1.5" stroke-linecap="round" stroke-linejoin="round"/>
</svg>
