<svg width="36" height="36" viewBox="0 0 36 36" fill="none" xmlns="http://www.w3.org/2000/svg">
<path d="M18.42 28.845C19.476 28.77 20.518 28.6015 21.546 28.3395C22.811 28.7187 24.1457 28.8048 25.449 28.5915C25.5008 28.5848 25.5528 28.5808 25.605 28.5795C26.07 28.5795 26.6805 28.8465 27.57 29.409V28.485C27.5702 28.324 27.6136 28.1661 27.6957 28.0275C27.7777 27.889 27.8954 27.7751 28.0365 27.6975C28.4235 27.483 28.7835 27.2325 29.112 26.9595C30.408 25.875 31.14 24.4305 31.14 22.9005C31.1395 22.3946 31.059 21.8919 30.9015 21.411C31.2915 20.691 31.6095 19.932 31.842 19.146C32.592 20.256 32.997 21.561 33 22.9005C33 24.9795 32.019 26.9205 30.3225 28.338C30.0387 28.5741 29.7406 28.7925 29.43 28.992V31.155C29.43 31.899 28.56 32.325 27.9465 31.884C27.3661 31.4554 26.7654 31.0549 26.1465 30.684C25.9685 30.5794 25.7836 30.4872 25.593 30.408C25.083 30.484 24.564 30.5225 24.036 30.5235C21.918 30.5235 19.9605 29.8965 18.42 28.845ZM7.221 24.516C4.545 22.281 3 19.227 3 15.96C3 9.27903 9.387 3.93903 17.1855 3.93903C24.984 3.93903 31.3725 9.27903 31.3725 15.96C31.3725 22.641 24.984 27.9795 17.1855 27.9795C16.3085 27.9795 15.4445 27.913 14.5935 27.78C14.226 27.8655 12.7575 28.7265 10.641 30.252C9.876 30.8055 8.787 30.2715 8.787 29.34V25.65C8.23866 25.3109 7.71532 24.9329 7.221 24.519M14.646 25.506C14.709 25.506 14.774 25.511 14.841 25.521C15.6159 25.6495 16.4 25.7138 17.1855 25.713C23.7735 25.713 29.046 21.3045 29.046 15.96C29.046 10.6155 23.7735 6.20853 17.1855 6.20853C10.6005 6.20853 5.325 10.617 5.325 15.96C5.325 18.5445 6.5565 20.9775 8.7345 22.7985C9.2845 23.2565 9.8825 23.667 10.5285 24.03C10.89 24.2325 11.1135 24.6075 11.1135 25.0125V27.141C12.7875 26.031 13.8885 25.506 14.6445 25.506" fill="#FF9D66"/>
<path d="M11.4375 18C11.9348 18 12.4117 17.8025 12.7633 17.4508C13.115 17.0992 13.3125 16.6223 13.3125 16.125C13.3125 15.6277 13.115 15.1508 12.7633 14.7992C12.4117 14.4475 11.9348 14.25 11.4375 14.25C10.9402 14.25 10.4633 14.4475 10.1117 14.7992C9.76004 15.1508 9.5625 15.6277 9.5625 16.125C9.5625 16.6223 9.76004 17.0992 10.1117 17.4508C10.4633 17.8025 10.9402 18 11.4375 18ZM17.5305 18C18.0278 18 18.5047 17.8025 18.8563 17.4508C19.208 17.0992 19.4055 16.6223 19.4055 16.125C19.4055 15.6277 19.208 15.1508 18.8563 14.7992C18.5047 14.4475 18.0278 14.25 17.5305 14.25C17.0332 14.25 16.5563 14.4475 16.2047 14.7992C15.853 15.1508 15.6555 15.6277 15.6555 16.125C15.6555 16.6223 15.853 17.0992 16.2047 17.4508C16.5563 17.8025 17.0332 18 17.5305 18ZM23.625 18.0015C24.1223 18.0015 24.5992 17.804 24.9508 17.4523C25.3025 17.1007 25.5 16.6238 25.5 16.1265C25.5 15.6292 25.3025 15.1523 24.9508 14.8007C24.5992 14.449 24.1223 14.2515 23.625 14.2515C23.1277 14.2515 22.6508 14.449 22.2992 14.8007C21.9475 15.1523 21.75 15.6292 21.75 16.1265C21.75 16.6238 21.9475 17.1007 22.2992 17.4523C22.6508 17.804 23.1277 18.0015 23.625 18.0015Z" fill="#FF9D66"/>
</svg>
