<svg width="25" height="30" viewBox="0 0 25 30" fill="none" xmlns="http://www.w3.org/2000/svg">
<path d="M17.4765 2.92646L17.9038 5.88542H23.6875C23.9776 5.88542 24.2558 6.00065 24.4609 6.20577C24.666 6.41089 24.7812 6.68909 24.7812 6.97917C24.7812 7.26925 24.666 7.54745 24.4609 7.75256C24.2558 7.95768 23.9776 8.07292 23.6875 8.07292H22.566L21.2929 22.926C21.2156 23.8302 21.1529 24.574 21.0523 25.1748C20.9502 25.8004 20.7942 26.3604 20.4894 26.8796C20.0108 27.695 19.2993 28.3486 18.4463 28.7565C17.9038 29.0146 17.3321 29.121 16.6992 29.1706C16.091 29.2188 15.3458 29.2188 14.4388 29.2188H11.0613C10.1542 29.2188 9.40896 29.2188 8.80083 29.1706C8.16792 29.121 7.59625 29.0146 7.05375 28.7565C6.20075 28.3486 5.48922 27.695 5.01062 26.8796C4.70437 26.3604 4.55125 25.8004 4.44771 25.1748C4.34708 24.5725 4.28438 23.8302 4.20708 22.926L2.93396 8.07292H1.8125C1.52242 8.07292 1.24422 7.95768 1.0391 7.75256C0.833984 7.54745 0.71875 7.26925 0.71875 6.97917C0.71875 6.68909 0.833984 6.41089 1.0391 6.20577C1.24422 6.00065 1.52242 5.88542 1.8125 5.88542H7.59625L8.02354 2.92646L8.03958 2.8375C8.305 1.68542 9.29375 0.78125 10.5333 0.78125H14.9667C16.2063 0.78125 17.195 1.68542 17.4604 2.8375L17.4765 2.92646ZM9.80562 5.88542H15.6929L15.3196 3.29542C15.2496 3.05188 15.0717 2.96875 14.9652 2.96875H10.5348C10.4283 2.96875 10.2504 3.05188 10.1804 3.29542L9.80562 5.88542ZM11.6562 12.8125C11.6562 12.5224 11.541 12.2442 11.3359 12.0391C11.1308 11.834 10.8526 11.7188 10.5625 11.7188C10.2724 11.7188 9.99422 11.834 9.7891 12.0391C9.58398 12.2442 9.46875 12.5224 9.46875 12.8125V20.1042C9.46875 20.3942 9.58398 20.6724 9.7891 20.8776C9.99422 21.0827 10.2724 21.1979 10.5625 21.1979C10.8526 21.1979 11.1308 21.0827 11.3359 20.8776C11.541 20.6724 11.6562 20.3942 11.6562 20.1042V12.8125ZM16.0312 12.8125C16.0312 12.5224 15.916 12.2442 15.7109 12.0391C15.5058 11.834 15.2276 11.7188 14.9375 11.7188C14.6474 11.7188 14.3692 11.834 14.1641 12.0391C13.959 12.2442 13.8438 12.5224 13.8438 12.8125V20.1042C13.8438 20.3942 13.959 20.6724 14.1641 20.8776C14.3692 21.0827 14.6474 21.1979 14.9375 21.1979C15.2276 21.1979 15.5058 21.0827 15.7109 20.8776C15.916 20.6724 16.0312 20.3942 16.0312 20.1042V12.8125Z" fill="#3E6E7A"/>
</svg>
