<svg width="26" height="26" viewBox="0 0 26 26" fill="none" xmlns="http://www.w3.org/2000/svg">
<path d="M0.5 9.25C0.5 6.8925 0.5 5.715 1.2325 4.9825C1.965 4.25 3.1425 4.25 5.5 4.25H20.5C22.8575 4.25 24.035 4.25 24.7675 4.9825C25.5 5.715 25.5 6.8925 25.5 9.25C25.5 9.83875 25.5 10.1337 25.3175 10.3175C25.1338 10.5 24.8375 10.5 24.25 10.5H1.75C1.16125 10.5 0.86625 10.5 0.6825 10.3175C0.5 10.1337 0.5 9.8375 0.5 9.25Z" fill="#376F7E"/>
<path fill-rule="evenodd" clip-rule="evenodd" d="M0.5 20.5C0.5 22.8575 0.5 24.035 1.2325 24.7675C1.965 25.5 3.1425 25.5 5.5 25.5H20.5C22.8575 25.5 24.035 25.5 24.7675 24.7675C25.5 24.035 25.5 22.8575 25.5 20.5V14.25C25.5 13.6612 25.5 13.3662 25.3175 13.1825C25.1338 13 24.8375 13 24.25 13H1.75C1.16125 13 0.86625 13 0.6825 13.1825C0.5 13.3662 0.5 13.6625 0.5 14.25V20.5ZM6.75 16.75C6.75 16.1613 6.75 15.8662 6.9325 15.6825C7.11625 15.5 7.4125 15.5 8 15.5H10.5C11.0887 15.5 11.3837 15.5 11.5675 15.6825C11.75 15.8662 11.75 16.1613 11.75 16.75C11.75 17.3387 11.75 17.6337 11.5675 17.8175C11.3837 18 11.0875 18 10.5 18H8C7.41125 18 7.11625 18 6.9325 17.8175C6.75 17.6337 6.75 17.3375 6.75 16.75ZM6.9325 20.6825C6.75 20.8663 6.75 21.1625 6.75 21.75C6.75 22.3375 6.75 22.6337 6.9325 22.8175C7.11625 23 7.4125 23 8 23H10.5C11.0887 23 11.3837 23 11.5675 22.8175C11.75 22.6337 11.75 22.3375 11.75 21.75C11.75 21.1625 11.75 20.8663 11.5675 20.6825C11.3837 20.5 11.0875 20.5 10.5 20.5H8C7.41125 20.5 7.11625 20.5 6.9325 20.6825ZM14.25 16.75C14.25 16.1613 14.25 15.8662 14.4325 15.6825C14.6163 15.5 14.9125 15.5 15.5 15.5H18C18.5888 15.5 18.8838 15.5 19.0675 15.6825C19.25 15.8662 19.25 16.1613 19.25 16.75C19.25 17.3387 19.25 17.6337 19.0675 17.8175C18.8838 18 18.5875 18 18 18H15.5C14.9113 18 14.6163 18 14.4325 17.8175C14.25 17.6337 14.25 17.3375 14.25 16.75ZM14.4325 20.6825C14.25 20.8663 14.25 21.1625 14.25 21.75C14.25 22.3375 14.25 22.6337 14.4325 22.8175C14.6163 23 14.9113 23 15.5 23H18C18.5888 23 18.8838 23 19.0675 22.8175C19.25 22.6337 19.25 22.3375 19.25 21.75C19.25 21.1625 19.25 20.8663 19.0675 20.6825C18.8838 20.5 18.5875 20.5 18 20.5H15.5C14.9113 20.5 14.6163 20.5 14.4325 20.6825Z" fill="#376F7E"/>
<path d="M6.75 1.75V5.5M19.25 1.75V5.5" stroke="#376F7E" stroke-width="2" stroke-linecap="round"/>
</svg>
