<svg width="65" height="66" viewBox="0 0 65 66" fill="none" xmlns="http://www.w3.org/2000/svg">
<path d="M32.4993 65.0832C14.7797 65.0832 0.416016 50.7195 0.416016 32.9998C0.416016 15.2802 14.7797 0.916504 32.4993 0.916504C50.219 0.916504 64.5827 15.2802 64.5827 32.9998C64.5827 50.7195 50.219 65.0832 32.4993 65.0832ZM32.4993 58.6665C39.3066 58.6665 45.835 55.9623 50.6484 51.1489C55.4619 46.3355 58.166 39.8071 58.166 32.9998C58.166 26.1926 55.4619 19.6642 50.6484 14.8508C45.835 10.0373 39.3066 7.33317 32.4993 7.33317C25.6921 7.33317 19.1637 10.0373 14.3503 14.8508C9.53684 19.6642 6.83268 26.1926 6.83268 32.9998C6.83268 39.8071 9.53684 46.3355 14.3503 51.1489C19.1637 55.9623 25.6921 58.6665 32.4993 58.6665ZM32.4993 16.9582C33.3503 16.9582 34.1663 17.2962 34.768 17.8979C35.3697 18.4995 35.7077 19.3156 35.7077 20.1665V36.2082C35.7077 37.0591 35.3697 37.8751 34.768 38.4768C34.1663 39.0785 33.3503 39.4165 32.4993 39.4165C31.6484 39.4165 30.8324 39.0785 30.2307 38.4768C29.629 37.8751 29.291 37.0591 29.291 36.2082V20.1665C29.291 19.3156 29.629 18.4995 30.2307 17.8979C30.8324 17.2962 31.6484 16.9582 32.4993 16.9582ZM32.4993 49.0415C31.6484 49.0415 30.8324 48.7035 30.2307 48.1018C29.629 47.5001 29.291 46.6841 29.291 45.8332C29.291 44.9823 29.629 44.1662 30.2307 43.5645C30.8324 42.9629 31.6484 42.6248 32.4993 42.6248C33.3503 42.6248 34.1663 42.9629 34.768 43.5645C35.3697 44.1662 35.7077 44.9823 35.7077 45.8332C35.7077 46.6841 35.3697 47.5001 34.768 48.1018C34.1663 48.7035 33.3503 49.0415 32.4993 49.0415Z" fill="#FF9D66" fill-opacity="0.5"/>
</svg>
