<svg width="26" height="24" viewBox="0 0 26 24" fill="none" xmlns="http://www.w3.org/2000/svg">
<path d="M14.9394 0.752165C8.57692 0.577165 3.36442 5.68967 3.36442 12.0022H1.12692C0.564418 12.0022 0.289418 12.6772 0.689418 13.0647L4.17692 16.5647C4.42692 16.8147 4.81442 16.8147 5.06442 16.5647L8.55192 13.0647C8.6383 12.9765 8.69666 12.8648 8.71965 12.7436C8.74264 12.6224 8.72922 12.497 8.6811 12.3834C8.63298 12.2698 8.5523 12.1729 8.44923 12.1051C8.34616 12.0373 8.22531 12.0014 8.10192 12.0022H5.86442C5.86442 7.12717 9.83942 3.18967 14.7394 3.25217C19.3894 3.31467 23.3019 7.22717 23.3644 11.8772C23.4269 16.7647 19.4894 20.7522 14.6144 20.7522C12.6019 20.7522 10.7394 20.0647 9.26442 18.9022C9.025 18.7136 8.7246 18.6195 8.42038 18.638C8.11615 18.6564 7.82931 18.786 7.61442 19.0022C7.08942 19.5272 7.12692 20.4147 7.71442 20.8647C9.67842 22.4176 12.1107 23.2592 14.6144 23.2522C20.9269 23.2522 26.0394 18.0397 25.8644 11.6772C25.7019 5.81467 20.8019 0.914665 14.9394 0.752165ZM14.3019 7.00217C13.7894 7.00217 13.3644 7.42717 13.3644 7.93967V12.5397C13.3644 12.9772 13.6019 13.3897 13.9769 13.6147L17.8769 15.9272C18.3269 16.1897 18.9019 16.0397 19.1644 15.6022C19.4269 15.1522 19.2769 14.5772 18.8394 14.3147L15.2394 12.1772V7.92717C15.2394 7.42717 14.8144 7.00217 14.3019 7.00217Z" fill="#FF9D66"/>
</svg>
