<svg width="95" height="94" viewBox="0 0 95 94" fill="none" xmlns="http://www.w3.org/2000/svg">
<path d="M47.5 94C35.0348 94 23.0802 89.0482 14.266 80.234C5.45177 71.4198 0.5 59.4652 0.5 47C0.5 34.5348 5.45177 22.5802 14.266 13.766C23.0802 4.95177 35.0348 0 47.5 0C59.9652 0 71.9198 4.95177 80.734 13.766C89.5482 22.5802 94.5 34.5348 94.5 47C94.5 59.4652 89.5482 71.4198 80.734 80.234C71.9198 89.0482 59.9652 94 47.5 94ZM38.1 70.5L80.4 30.55L73.35 23.5L38.1 56.4L21.65 39.95L14.6 47L38.1 70.5Z" fill="#376F7E"/>
</svg>
